<?xml version="1.0" standalone="no"?>
<svg xmlns="http://www.w3.org/2000/svg" xmlns:xlink="http://www.w3.org/1999/xlink" width="1140pt" height="1336pt" viewBox="0.00 0.00 1139.66 1336">
<g id="graph0" class="graph" transform="translate(88.96647181150199,1281.916420443089) scale(0.9434382508953616)" data-name="nf-evmodeler">

<polygon fill="white" stroke="none" points="-4,4 -4,-1332 1135.66,-1332 1135.66,4 -4,4" style=""/>
<!-- v0 -->
<g id="node1" class="node" pointer-events="visible" data-name="v0">

<polygon fill="#c6d222" fill-opacity="0.674510" stroke="black" points="409.32,-1305.2 319.32,-1305.2 319.32,-1281.2 409.32,-1281.2 409.32,-1275.2 427.32,-1293.2 409.32,-1311.2 409.32,-1305.2" style=""/>
<text text-anchor="middle" x="373.32" y="-1289" font-family="Times,serif" font-size="14.00" style="">Input</text>
<text text-anchor="middle" x="268.19" y="-1315.4" font-family="Times,serif" font-size="14.00" style="">Channel.fromPath</text>
</g>
<!-- v1 -->
<g id="node2" class="node" pointer-events="visible" data-name="v1">

<ellipse fill="none" stroke="black" cx="373.32" cy="-1234.6" rx="3.5" ry="3.5" style=""/>
<text text-anchor="middle" x="346.87" y="-1242.3" font-family="Times,serif" font-size="14.00" style="">splitCsv</text>
</g>
<!-- v0&#45;&gt;v1 -->
<g id="edge1" class="edge" data-name="v0-&gt;v1">

<path fill="none" stroke="black" d="M373.32,-1274.91C373.32,-1266.88 373.32,-1257.46 373.32,-1249.85"/>
<polygon fill="black" stroke="black" points="376.82,-1250.07 373.32,-1240.07 369.82,-1250.07 376.82,-1250.07"/>
</g>
<!-- v3 -->
<g id="node3" class="node" pointer-events="visible" data-name="v3">

<polygon fill="#0e4527" fill-opacity="0.674510" stroke="black" points="594.36,-1178.2 220.27,-1178.2 220.27,-1142.2 594.36,-1142.2 594.36,-1178.2" style=""/>
<text text-anchor="middle" x="407.32" y="-1156" font-family="Times,serif" font-size="14.00" style="">EVMODELER:PREPARE_INPUTS:SEQKIT_GET_LENGTH</text>
</g>
<!-- v1&#45;&gt;v3 -->
<g id="edge2" class="edge" data-name="v1-&gt;v3">

<path fill="none" stroke="black" d="M372.72,-1230.74C371.5,-1224.28 369.27,-1208.21 374.21,-1196.2 375.47,-1193.16 377.12,-1190.22 379.02,-1187.43"/>
<polygon fill="black" stroke="black" points="381.66,-1189.72 385.24,-1179.75 376.23,-1185.32 381.66,-1189.72"/>
<text text-anchor="middle" x="396.87" y="-1200.4" font-family="Times,serif" font-size="14.00" style="">samples</text>
</g>
<!-- v4 -->
<g id="node5" class="node" pointer-events="visible" data-name="v4">

<polygon fill="#22d271" fill-opacity="0.678431" stroke="black" points="597.34,-1105.2 217.29,-1105.2 217.29,-1069.2 597.34,-1069.2 597.34,-1105.2" style=""/>
<text text-anchor="middle" x="407.32" y="-1083" font-family="Times,serif" font-size="14.00" style="">EVMODELER:PREPARE_INPUTS:SEQTK_SUBSET_INPUT</text>
</g>
<!-- v3&#45;&gt;v4 -->
<g id="edge4" class="edge" data-name="v3-&gt;v4">

<path fill="none" stroke="black" d="M407.32,-1142.01C407.32,-1134.43 407.32,-1125.3 407.32,-1116.74"/>
<polygon fill="black" stroke="black" points="410.82,-1116.74 407.32,-1106.74 403.82,-1116.74 410.82,-1116.74"/>
</g>
<!-- v2 -->
<g id="node4" class="node" pointer-events="visible" data-name="v2">

<ellipse fill="black" stroke="black" cx="441.32" cy="-1234.6" rx="3.6" ry="3.6" style=""/>
</g>
<!-- v2&#45;&gt;v3 -->
<g id="edge3" class="edge" data-name="v2-&gt;v3">

<path fill="none" stroke="black" d="M440.03,-1230.85C436.76,-1223.9 427.9,-1205.02 420.22,-1188.67"/>
<polygon fill="black" stroke="black" points="423.47,-1187.37 416.06,-1179.81 417.14,-1190.35 423.47,-1187.37"/>
<text text-anchor="middle" x="447.81" y="-1200.4" font-family="Times,serif" font-size="14.00" style="">length</text>
</g>
<!-- v5 -->
<g id="node6" class="node" pointer-events="visible" data-name="v5">

<ellipse fill="none" stroke="black" cx="407.32" cy="-928.8" rx="3.5" ry="3.5" style=""/>
<text text-anchor="middle" x="391.77" y="-936.5" font-family="Times,serif" font-size="14.00" style="">map</text>
</g>
<!-- v4&#45;&gt;v5 -->
<g id="edge5" class="edge" data-name="v4-&gt;v5">

<path fill="none" stroke="black" d="M407.32,-1068.86C407.32,-1037.71 407.32,-972.83 407.32,-944.06"/>
<polygon fill="black" stroke="black" points="410.82,-944.19 407.32,-934.19 403.82,-944.19 410.82,-944.19"/>
<text text-anchor="middle" x="431.81" y="-1003.8" font-family="Times,serif" font-size="14.00" style="">ch_input</text>
</g>
<!-- v6 -->
<g id="node8" class="node" pointer-events="visible" data-name="v6">

<ellipse fill="none" stroke="black" cx="172.32" cy="-973.2" rx="3.5" ry="3.5" style=""/>
<text text-anchor="middle" x="156.77" y="-980.9" font-family="Times,serif" font-size="14.00" style="">map</text>
</g>
<!-- v4&#45;&gt;v6 -->
<g id="edge7" class="edge" data-name="v4-&gt;v6">

<path fill="none" stroke="black" d="M370.6,-1068.7C317.03,-1043.17 220.04,-996.94 185.21,-980.34"/>
<polygon fill="black" stroke="black" points="187.02,-977.33 176.49,-976.19 184.01,-983.65 187.02,-977.33"/>
<text text-anchor="middle" x="354.81" y="-1038.6" font-family="Times,serif" font-size="14.00" style="">ch_input</text>
</g>
<!-- v7 -->
<g id="node10" class="node" pointer-events="visible" data-name="v7">

<ellipse fill="none" stroke="black" cx="585.32" cy="-1008" rx="3.5" ry="3.5" style=""/>
<text text-anchor="middle" x="569.77" y="-1015.7" font-family="Times,serif" font-size="14.00" style="">map</text>
</g>
<!-- v4&#45;&gt;v7 -->
<g id="edge9" class="edge" data-name="v4-&gt;v7">

<path fill="none" stroke="black" d="M447.26,-1068.87C487.07,-1051.61 545.9,-1026.09 572.01,-1014.77"/>
<polygon fill="black" stroke="black" points="573.23,-1018.06 581.01,-1010.87 570.45,-1011.63 573.23,-1018.06"/>
<text text-anchor="middle" x="546.81" y="-1038.6" font-family="Times,serif" font-size="14.00" style="">ch_input</text>
</g>
<!-- v8 -->
<g id="node7" class="node" pointer-events="visible" data-name="v8">

<polygon fill="#526c9b" fill-opacity="0.686275" stroke="black" points="379.3,-858 125.33,-858 125.33,-822 379.3,-822 379.3,-858" style=""/>
<text text-anchor="middle" x="252.32" y="-835.8" font-family="Times,serif" font-size="14.00" style="">EVMODELER:AB_INITIO:AUGUSTUS</text>
</g>
<!-- v5&#45;&gt;v8 -->
<g id="edge6" class="edge" data-name="v5-&gt;v8">

<path fill="none" stroke="black" d="M403.98,-926.73C392.42,-922.95 353.07,-909.53 323.34,-892.8 309.24,-884.87 294.64,-874.63 282.38,-865.35"/>
<polygon fill="black" stroke="black" points="284.75,-862.76 274.7,-859.41 280.47,-868.3 284.75,-862.76"/>
<text text-anchor="middle" x="359.31" y="-880.2" font-family="Times,serif" font-size="14.00" style="">ch_genomes</text>
</g>
<!-- v9 -->
<g id="node12" class="node" pointer-events="visible" data-name="v9">

<polygon fill="#3c73d9" fill-opacity="0.682353" stroke="black" points="650.92,-858 435.71,-858 435.71,-822 650.92,-822 650.92,-858" style=""/>
<text text-anchor="middle" x="543.32" y="-835.8" font-family="Times,serif" font-size="14.00" style="">EVMODELER:AB_INITIO:SNAP</text>
</g>
<!-- v5&#45;&gt;v9 -->
<g id="edge12" class="edge" data-name="v5-&gt;v9">

<path fill="none" stroke="black" d="M410.16,-925.99C422.4,-918.18 471.58,-886.78 506.61,-864.43"/>
<polygon fill="black" stroke="black" points="508.25,-867.54 514.79,-859.21 504.48,-861.63 508.25,-867.54"/>
<text text-anchor="middle" x="522.31" y="-880.2" font-family="Times,serif" font-size="14.00" style="">ch_genomes</text>
</g>
<!-- v11 -->
<g id="node15" class="node" pointer-events="visible" data-name="v11">

<polygon fill="#00b9f6" fill-opacity="0.678431" stroke="black" points="262.8,-804 15.84,-804 15.84,-768 262.8,-768 262.8,-804" style=""/>
<text text-anchor="middle" x="139.32" y="-781.8" font-family="Times,serif" font-size="14.00" style="">EVMODELER:AB_INITIO:MINIPROT</text>
</g>
<!-- v5&#45;&gt;v11 -->
<g id="edge15" class="edge" data-name="v5-&gt;v11">

<path fill="none" stroke="black" d="M403.74,-927.55C372.96,-925.35 152.79,-907.92 116.32,-858 106.91,-845.12 111.87,-828.21 119.55,-814.12"/>
<polygon fill="black" stroke="black" points="122.44,-816.11 124.67,-805.75 116.47,-812.45 122.44,-816.11"/>
<text text-anchor="middle" x="216.31" y="-880.2" font-family="Times,serif" font-size="14.00" style="">ch_genomes</text>
</g>
<!-- v14 -->
<g id="node18" class="node" pointer-events="visible" data-name="v14">

<ellipse fill="none" stroke="black" cx="687.32" cy="-732" rx="3.5" ry="3.5" style=""/>
<text text-anchor="middle" x="672.93" y="-739.7" font-family="Times,serif" font-size="14.00" style="">join</text>
</g>
<!-- v5&#45;&gt;v14 -->
<g id="edge19" class="edge" data-name="v5-&gt;v14">

<path fill="none" stroke="black" d="M410.7,-927.37C438.18,-923.83 624.6,-898.49 660.32,-858 688.31,-826.26 689.59,-772.5 688.41,-747.09"/>
<polygon fill="black" stroke="black" points="691.92,-747.04 687.73,-737.31 684.93,-747.53 691.92,-747.04"/>
<text text-anchor="middle" x="714.31" y="-835.8" font-family="Times,serif" font-size="14.00" style="">ch_genomes</text>
</g>
<!-- v31 -->
<g id="node34" class="node" pointer-events="visible" data-name="v31">

<ellipse fill="none" stroke="black" cx="310.32" cy="-408.4" rx="3.5" ry="3.5" style=""/>
<text text-anchor="middle" x="295.93" y="-416.1" font-family="Times,serif" font-size="14.00" style="">join</text>
</g>
<!-- v5&#45;&gt;v31 -->
<g id="edge39" class="edge" data-name="v5-&gt;v31">

<path fill="none" stroke="black" d="M407.32,-924.8C407.32,-913.7 407.32,-873.85 407.32,-841 407.32,-841 407.32,-841 407.32,-480.4 407.32,-439.88 351.52,-419.98 324.56,-412.73"/>
<polygon fill="black" stroke="black" points="325.56,-409.37 315.02,-410.41 323.91,-416.18 325.56,-409.37"/>
<text text-anchor="middle" x="442.31" y="-654.8" font-family="Times,serif" font-size="14.00" style="">ch_genomes</text>
</g>
<!-- v27 -->
<g id="node9" class="node" pointer-events="visible" data-name="v27">

<ellipse fill="none" stroke="black" cx="277.32" cy="-732" rx="3.5" ry="3.5" style=""/>
<text text-anchor="middle" x="262.93" y="-739.7" font-family="Times,serif" font-size="14.00" style="">join</text>
</g>
<!-- v8&#45;&gt;v27 -->
<g id="edge11" class="edge" data-name="v8-&gt;v27">

<path fill="none" stroke="black" d="M258.18,-821.66C259.96,-816.06 261.84,-809.8 263.32,-804 268.34,-784.28 272.62,-761.08 275.07,-746.71"/>
<polygon fill="black" stroke="black" points="278.46,-747.66 276.64,-737.23 271.56,-746.52 278.46,-747.66"/>
</g>
<!-- v6&#45;&gt;v27 -->
<g id="edge8" class="edge" data-name="v6-&gt;v27">

<path fill="none" stroke="black" d="M169.4,-970.68C142.81,-956.66 -55.08,-848.42 15.32,-768 47.85,-730.83 210.91,-731.42 261.99,-732.55"/>
<polygon fill="black" stroke="black" points="261.82,-736.05 271.91,-732.82 262.01,-729.05 261.82,-736.05"/>
<text text-anchor="middle" x="79.75" y="-880.2" font-family="Times,serif" font-size="14.00" style="">ch_liftoff</text>
</g>
<!-- v28 -->
<g id="node13" class="node" pointer-events="visible" data-name="v28">

<ellipse fill="none" stroke="black" cx="345.32" cy="-659" rx="3.5" ry="3.5" style=""/>
<text text-anchor="middle" x="330.93" y="-666.7" font-family="Times,serif" font-size="14.00" style="">join</text>
</g>
<!-- v27&#45;&gt;v28 -->
<g id="edge34" class="edge" data-name="v27-&gt;v28">

<path fill="none" stroke="black" d="M279.28,-728.95C287.5,-720.37 319.52,-686.94 335.76,-669.98"/>
<polygon fill="black" stroke="black" points="338.04,-672.66 342.43,-663.02 332.98,-667.82 338.04,-672.66"/>
</g>
<!-- v12 -->
<g id="node11" class="node" pointer-events="visible" data-name="v12">

<polygon fill="#9b5294" fill-opacity="0.682353" stroke="black" points="818.73,-946.8 567.91,-946.8 567.91,-910.8 818.73,-910.8 818.73,-946.8" style=""/>
<text text-anchor="middle" x="693.32" y="-924.6" font-family="Times,serif" font-size="14.00" style="">EVMODELER:PASA:AGAT_GTF2GFF</text>
</g>
<!-- v7&#45;&gt;v12 -->
<g id="edge10" class="edge" data-name="v7-&gt;v12">

<path fill="none" stroke="black" d="M587.99,-1005.09C597.81,-998.07 632.76,-973.09 659.74,-953.8"/>
<polygon fill="black" stroke="black" points="661.56,-956.8 667.66,-948.14 657.49,-951.11 661.56,-956.8"/>
<text text-anchor="middle" x="699.86" y="-969" font-family="Times,serif" font-size="14.00" style="">ch_genomes_bambu</text>
</g>
<!-- v13 -->
<g id="node17" class="node" pointer-events="visible" data-name="v13">

<polygon fill="#b822d2" fill-opacity="0.674510" stroke="black" points="1131.51,-858 775.13,-858 775.13,-822 1131.51,-822 1131.51,-858" style=""/>
<text text-anchor="middle" x="953.32" y="-835.8" font-family="Times,serif" font-size="14.00" style="">EVMODELER:PASA:AGAT_EXTRACT_TRANSCRIPTS</text>
</g>
<!-- v12&#45;&gt;v13 -->
<g id="edge17" class="edge" data-name="v12-&gt;v13">

<path fill="none" stroke="black" d="M745.62,-910.34C787.4,-896.39 846.1,-876.79 890.44,-861.99"/>
<polygon fill="black" stroke="black" points="891.29,-865.4 899.66,-858.91 889.07,-858.76 891.29,-865.4"/>
</g>
<!-- v9&#45;&gt;v28 -->
<g id="edge13" class="edge" data-name="v9-&gt;v28">

<path fill="none" stroke="black" d="M523.97,-821.51C482.89,-784.37 388.07,-698.65 356.08,-669.73"/>
<polygon fill="black" stroke="black" points="358.47,-667.17 348.7,-663.06 353.77,-672.36 358.47,-667.17"/>
<text text-anchor="middle" x="457.15" y="-727.8" font-family="Times,serif" font-size="14.00" style="">snap</text>
</g>
<!-- v10 -->
<g id="node14" class="node" pointer-events="visible" data-name="v10">

<polygon fill="#f8ffb9" stroke="black" points="564.32,-750 516.32,-750 516.32,-714 570.32,-714 570.32,-744 564.32,-750" style=""/>
<polyline fill="none" stroke="black" points="564.32,-750 564.32,-744" style=""/>
<polyline fill="none" stroke="black" points="570.32,-744 564.32,-744" style=""/>
<text text-anchor="middle" x="543.32" y="-727.8" font-family="Times,serif" font-size="14.00" style="">output</text>
</g>
<!-- v9&#45;&gt;v10 -->
<g id="edge14" class="edge" data-name="v9-&gt;v10">

<path fill="none" stroke="black" d="M543.32,-821.97C543.32,-805.76 543.32,-781.06 543.32,-761.79"/>
<polygon fill="black" stroke="black" points="546.82,-761.85 543.32,-751.85 539.82,-761.85 546.82,-761.85"/>
</g>
<!-- v29 -->
<g id="node32" class="node" pointer-events="visible" data-name="v29">

<ellipse fill="none" stroke="black" cx="345.32" cy="-570.2" rx="3.5" ry="3.5" style=""/>
<text text-anchor="middle" x="330.93" y="-577.9" font-family="Times,serif" font-size="14.00" style="">join</text>
</g>
<!-- v28&#45;&gt;v29 -->
<g id="edge35" class="edge" data-name="v28-&gt;v29">

<path fill="none" stroke="black" d="M345.32,-655.11C345.32,-644.4 345.32,-606.51 345.32,-585.5"/>
<polygon fill="black" stroke="black" points="348.82,-585.7 345.32,-575.7 341.82,-585.7 348.82,-585.7"/>
</g>
<!-- v32 -->
<g id="node16" class="node" pointer-events="visible" data-name="v32">

<ellipse fill="none" stroke="black" cx="310.32" cy="-334.1" rx="3.5" ry="3.5" style=""/>
<text text-anchor="middle" x="295.93" y="-341.8" font-family="Times,serif" font-size="14.00" style="">join</text>
</g>
<!-- v11&#45;&gt;v32 -->
<g id="edge16" class="edge" data-name="v11-&gt;v32">

<path fill="none" stroke="black" d="M139.32,-767.61C139.32,-749.66 139.32,-720.88 139.32,-696 139.32,-696 139.32,-696 139.32,-407.4 139.32,-340.07 253.16,-334.48 295.07,-334.7"/>
<polygon fill="black" stroke="black" points="294.84,-338.2 304.91,-334.9 294.98,-331.2 294.84,-338.2"/>
</g>
<!-- v33 -->
<g id="node30" class="node" pointer-events="visible" data-name="v33">

<ellipse fill="#d22260" fill-opacity="0.674510" stroke="black" cx="443.32" cy="-235.6" rx="54" ry="54" style=""/>
<ellipse fill="none" stroke="black" cx="443.32" cy="-235.6" rx="58" ry="58" style=""/>
<text text-anchor="middle" x="443.32" y="-239.8" font-family="Times,serif" font-size="14.00" style="">Prepared</text>
<text text-anchor="middle" x="443.32" y="-223" font-family="Times,serif" font-size="14.00" style="">Annotations</text>
<text text-anchor="middle" x="374.43" y="-297.8" font-family="Times,serif" font-size="14.00" style="">join</text>
</g>
<!-- v32&#45;&gt;v33 -->
<g id="edge41" class="edge" data-name="v32-&gt;v33">

<path fill="none" stroke="black" d="M312.63,-331.43C321.73,-324.82 356.18,-299.82 387.42,-277.15"/>
<polygon fill="black" stroke="black" points="389.29,-280.12 395.33,-271.42 385.18,-274.46 389.29,-280.12"/>
</g>
<!-- v13&#45;&gt;v14 -->
<g id="edge18" class="edge" data-name="v13-&gt;v14">

<path fill="none" stroke="black" d="M909.69,-821.61C847.99,-797.03 738.52,-753.4 700.65,-738.31"/>
<polygon fill="black" stroke="black" points="702.42,-735.25 691.84,-734.8 699.83,-741.76 702.42,-735.25"/>
</g>
<!-- v15 -->
<g id="node19" class="node" pointer-events="visible" data-name="v15">

<polygon fill="#b522d2" fill-opacity="0.674510" stroke="black" points="771.17,-677 521.47,-677 521.47,-641 771.17,-641 771.17,-677" style=""/>
<text text-anchor="middle" x="646.32" y="-654.8" font-family="Times,serif" font-size="14.00" style="">EVMODELER:PASA:PASA_PIPELINE</text>
</g>
<!-- v14&#45;&gt;v15 -->
<g id="edge20" class="edge" data-name="v14-&gt;v15">

<path fill="none" stroke="black" d="M685.95,-728.64C682.2,-722.14 671.39,-703.41 662,-687.16"/>
<polygon fill="black" stroke="black" points="665.2,-685.71 657.17,-678.8 659.14,-689.21 665.2,-685.71"/>
</g>
<!-- v20 -->
<g id="node20" class="node" pointer-events="visible" data-name="v20">

<ellipse fill="none" stroke="black" cx="549.32" cy="-570.2" rx="3.5" ry="3.5" style=""/>
<text text-anchor="middle" x="534.93" y="-577.9" font-family="Times,serif" font-size="14.00" style="">join</text>
</g>
<!-- v15&#45;&gt;v20 -->
<g id="edge21" class="edge" data-name="v15-&gt;v20">

<path fill="none" stroke="black" d="M586.13,-640.52C577.59,-635.93 569.59,-630.19 563.32,-623 554.18,-612.54 550.94,-596.7 549.82,-585.29"/>
<polygon fill="black" stroke="black" points="553.33,-585.27 549.34,-575.46 546.34,-585.62 553.33,-585.27"/>
</g>
<!-- v15&#45;&gt;v20 -->
<g id="edge22" class="edge" data-name="v15-&gt;v20">

<path fill="none" stroke="black" d="M612.66,-640.59C604.31,-635.5 595.68,-629.53 588.44,-623 575.41,-611.25 563.76,-594.63 556.63,-583.41"/>
<polygon fill="black" stroke="black" points="559.79,-581.87 551.6,-575.14 553.8,-585.5 559.79,-581.87"/>
<text text-anchor="middle" x="600.76" y="-610.4" font-family="Times,serif" font-size="14.00" style="">pasa</text>
</g>
<!-- v19 -->
<g id="node21" class="node" pointer-events="visible" data-name="v19">

<polygon fill="#f8ffb9" stroke="black" points="619.32,-588.2 571.32,-588.2 571.32,-552.2 625.32,-552.2 625.32,-582.2 619.32,-588.2" style=""/>
<polyline fill="none" stroke="black" points="619.32,-588.2 619.32,-582.2" style=""/>
<polyline fill="none" stroke="black" points="625.32,-582.2 619.32,-582.2" style=""/>
<text text-anchor="middle" x="598.32" y="-566" font-family="Times,serif" font-size="14.00" style="">output</text>
</g>
<!-- v15&#45;&gt;v19 -->
<g id="edge23" class="edge" data-name="v15-&gt;v19">

<path fill="none" stroke="black" d="M636.83,-640.85C630.17,-628.8 621.12,-612.43 613.46,-598.59"/>
<polygon fill="black" stroke="black" points="616.58,-596.99 608.68,-589.93 610.45,-600.38 616.58,-596.99"/>
</g>
<!-- v18 -->
<g id="node22" class="node" pointer-events="visible" data-name="v18">

<polygon fill="#f8ffb9" stroke="black" points="691.32,-588.2 643.32,-588.2 643.32,-552.2 697.32,-552.2 697.32,-582.2 691.32,-588.2" style=""/>
<polyline fill="none" stroke="black" points="691.32,-588.2 691.32,-582.2" style=""/>
<polyline fill="none" stroke="black" points="697.32,-582.2 691.32,-582.2" style=""/>
<text text-anchor="middle" x="670.32" y="-566" font-family="Times,serif" font-size="14.00" style="">output</text>
</g>
<!-- v15&#45;&gt;v18 -->
<g id="edge24" class="edge" data-name="v15-&gt;v18">

<path fill="none" stroke="black" d="M651.06,-640.85C654.32,-629.04 658.74,-613.07 662.52,-599.41"/>
<polygon fill="black" stroke="black" points="665.81,-600.64 665.1,-590.07 659.06,-598.77 665.81,-600.64"/>
</g>
<!-- v17 -->
<g id="node23" class="node" pointer-events="visible" data-name="v17">

<polygon fill="#f8ffb9" stroke="black" points="763.32,-588.2 715.32,-588.2 715.32,-552.2 769.32,-552.2 769.32,-582.2 763.32,-588.2" style=""/>
<polyline fill="none" stroke="black" points="763.32,-588.2 763.32,-582.2" style=""/>
<polyline fill="none" stroke="black" points="769.32,-582.2 763.32,-582.2" style=""/>
<text text-anchor="middle" x="742.32" y="-566" font-family="Times,serif" font-size="14.00" style="">output</text>
</g>
<!-- v15&#45;&gt;v17 -->
<g id="edge25" class="edge" data-name="v15-&gt;v17">

<path fill="none" stroke="black" d="M665.28,-640.85C679.39,-628.09 698.86,-610.49 714.7,-596.17"/>
<polygon fill="black" stroke="black" points="716.87,-598.93 721.94,-589.63 712.17,-593.74 716.87,-598.93"/>
</g>
<!-- v16 -->
<g id="node24" class="node" pointer-events="visible" data-name="v16">

<polygon fill="#f8ffb9" stroke="black" points="835.32,-588.2 787.32,-588.2 787.32,-552.2 841.32,-552.2 841.32,-582.2 835.32,-588.2" style=""/>
<polyline fill="none" stroke="black" points="835.32,-588.2 835.32,-582.2" style=""/>
<polyline fill="none" stroke="black" points="841.32,-582.2 835.32,-582.2" style=""/>
<text text-anchor="middle" x="814.32" y="-566" font-family="Times,serif" font-size="14.00" style="">output</text>
</g>
<!-- v15&#45;&gt;v16 -->
<g id="edge26" class="edge" data-name="v15-&gt;v16">

<path fill="none" stroke="black" d="M679.91,-640.64C707.88,-626.19 747.69,-605.62 776.72,-590.62"/>
<polygon fill="black" stroke="black" points="778.26,-593.77 785.54,-586.07 775.05,-587.55 778.26,-593.77"/>
</g>
<!-- v15&#45;&gt;v29 -->
<g id="edge36" class="edge" data-name="v15-&gt;v29">

<path fill="none" stroke="black" d="M585.56,-640.58C566.04,-634.97 544.33,-628.73 524.44,-623 463.22,-605.36 390.25,-584.22 359.79,-575.4"/>
<polygon fill="black" stroke="black" points="360.76,-572.03 350.19,-572.61 358.82,-578.76 360.76,-572.03"/>
<text text-anchor="middle" x="536.76" y="-610.4" font-family="Times,serif" font-size="14.00" style="">pasa</text>
</g>
<!-- v21 -->
<g id="node25" class="node" pointer-events="visible" data-name="v21">

<polygon fill="#d222c9" fill-opacity="0.968627" stroke="black" points="653.17,-499.4 445.47,-499.4 445.47,-463.4 653.17,-463.4 653.17,-499.4" style=""/>
<text text-anchor="middle" x="549.32" y="-477.2" font-family="Times,serif" font-size="14.00" style="">EVMODELER:PASA:PASA_TD</text>
</g>
<!-- v20&#45;&gt;v21 -->
<g id="edge27" class="edge" data-name="v20-&gt;v21">

<path fill="none" stroke="black" d="M549.32,-566.31C549.32,-557.75 549.32,-531.83 549.32,-511.04"/>
<polygon fill="black" stroke="black" points="552.82,-511.08 549.32,-501.08 545.82,-511.08 552.82,-511.08"/>
<text text-anchor="middle" x="563.71" y="-521.6" font-family="Times,serif" font-size="14.00" style="">td_in</text>
</g>
<!-- v26 -->
<g id="node26" class="node" pointer-events="visible" data-name="v26">

<polygon fill="#f8ffb9" stroke="black" points="679.32,-426.4 631.32,-426.4 631.32,-390.4 685.32,-390.4 685.32,-420.4 679.32,-426.4" style=""/>
<polyline fill="none" stroke="black" points="679.32,-426.4 679.32,-420.4" style=""/>
<polyline fill="none" stroke="black" points="685.32,-420.4 679.32,-420.4" style=""/>
<text text-anchor="middle" x="658.32" y="-404.2" font-family="Times,serif" font-size="14.00" style="">output</text>
</g>
<!-- v21&#45;&gt;v26 -->
<g id="edge28" class="edge" data-name="v21-&gt;v26">

<path fill="none" stroke="black" d="M575.98,-463.03C589.84,-454.01 606.97,-442.84 622.02,-433.04"/>
<polygon fill="black" stroke="black" points="623.81,-436.05 630.28,-427.66 619.99,-430.19 623.81,-436.05"/>
</g>
<!-- v25 -->
<g id="node27" class="node" pointer-events="visible" data-name="v25">

<polygon fill="#f8ffb9" stroke="black" points="751.32,-426.4 703.32,-426.4 703.32,-390.4 757.32,-390.4 757.32,-420.4 751.32,-426.4" style=""/>
<polyline fill="none" stroke="black" points="751.32,-426.4 751.32,-420.4" style=""/>
<polyline fill="none" stroke="black" points="757.32,-420.4 751.32,-420.4" style=""/>
<text text-anchor="middle" x="730.32" y="-404.2" font-family="Times,serif" font-size="14.00" style="">output</text>
</g>
<!-- v21&#45;&gt;v25 -->
<g id="edge29" class="edge" data-name="v21-&gt;v25">

<path fill="none" stroke="black" d="M599.39,-462.94C625.1,-453.7 657.06,-441.8 692.75,-426.92"/>
<polygon fill="black" stroke="black" points="693.66,-430.33 701.51,-423.22 690.94,-423.88 693.66,-430.33"/>
</g>
<!-- v24 -->
<g id="node28" class="node" pointer-events="visible" data-name="v24">

<polygon fill="#f8ffb9" stroke="black" points="425.32,-426.4 377.32,-426.4 377.32,-390.4 431.32,-390.4 431.32,-420.4 425.32,-426.4" style=""/>
<polyline fill="none" stroke="black" points="425.32,-426.4 425.32,-420.4" style=""/>
<polyline fill="none" stroke="black" points="431.32,-420.4 425.32,-420.4" style=""/>
<text text-anchor="middle" x="404.32" y="-404.2" font-family="Times,serif" font-size="14.00" style="">output</text>
</g>
<!-- v21&#45;&gt;v24 -->
<g id="edge30" class="edge" data-name="v21-&gt;v24">

<path fill="none" stroke="black" d="M513.85,-463.03C491.99,-452.33 463.99,-438.62 441.77,-427.74"/>
<polygon fill="black" stroke="black" points="443.58,-424.73 433.06,-423.47 440.5,-431.02 443.58,-424.73"/>
</g>
<!-- v23 -->
<g id="node29" class="node" pointer-events="visible" data-name="v23">

<polygon fill="#f8ffb9" stroke="black" points="497.32,-426.4 449.32,-426.4 449.32,-390.4 503.32,-390.4 503.32,-420.4 497.32,-426.4" style=""/>
<polyline fill="none" stroke="black" points="497.32,-426.4 497.32,-420.4" style=""/>
<polyline fill="none" stroke="black" points="503.32,-420.4 497.32,-420.4" style=""/>
<text text-anchor="middle" x="476.32" y="-404.2" font-family="Times,serif" font-size="14.00" style="">output</text>
</g>
<!-- v21&#45;&gt;v23 -->
<g id="edge31" class="edge" data-name="v21-&gt;v23">

<path fill="none" stroke="black" d="M531.65,-463.21C522.83,-454.64 512.01,-444.11 502.27,-434.64"/>
<polygon fill="black" stroke="black" points="504.77,-432.19 495.16,-427.73 499.89,-437.21 504.77,-432.19"/>
</g>
<!-- v21&#45;&gt;v33 -->
<g id="edge32" class="edge" data-name="v21-&gt;v33">

<path fill="none" stroke="black" d="M542.39,-463.08C535.07,-444.91 523.12,-415.54 512.32,-390.4 499.36,-360.24 484.51,-326.98 471.91,-299.13"/>
<polygon fill="black" stroke="black" points="475.14,-297.78 467.83,-290.12 468.77,-300.67 475.14,-297.78"/>
<text text-anchor="middle" x="524.7" y="-359.8" font-family="Times,serif" font-size="14.00" style="">pasa_td</text>
</g>
<!-- v22 -->
<g id="node31" class="node" pointer-events="visible" data-name="v22">

<polygon fill="#f8ffb9" stroke="black" points="607.32,-426.4 559.32,-426.4 559.32,-390.4 613.32,-390.4 613.32,-420.4 607.32,-426.4" style=""/>
<polyline fill="none" stroke="black" points="607.32,-426.4 607.32,-420.4" style=""/>
<polyline fill="none" stroke="black" points="613.32,-420.4 607.32,-420.4" style=""/>
<text text-anchor="middle" x="586.32" y="-404.2" font-family="Times,serif" font-size="14.00" style="">output</text>
</g>
<!-- v21&#45;&gt;v22 -->
<g id="edge33" class="edge" data-name="v21-&gt;v22">

<path fill="none" stroke="black" d="M558.27,-463.21C562.46,-455.19 567.53,-445.45 572.21,-436.47"/>
<polygon fill="black" stroke="black" points="575.23,-438.26 576.74,-427.77 569.02,-435.02 575.23,-438.26"/>
</g>
<!-- v34 -->
<g id="node35" class="node" pointer-events="visible" data-name="v34">

<polygon fill="indigo" stroke="black" points="572.47,-124.8 314.17,-124.8 314.17,-88.8 572.47,-88.8 572.47,-124.8" style=""/>
<text text-anchor="middle" x="443.32" y="-102.6" font-family="Times,serif" font-size="14.00" fill="white" style="">EVMODELER:EV_MODELER:EV_RUN</text>
</g>
<!-- v33&#45;&gt;v34 -->
<g id="edge42" class="edge" data-name="v33-&gt;v34">

<path fill="none" stroke="black" d="M443.32,-177.14C443.32,-162.98 443.32,-148.43 443.32,-136.34"/>
<polygon fill="black" stroke="black" points="446.82,-136.68 443.32,-126.68 439.82,-136.68 446.82,-136.68"/>
<text text-anchor="middle" x="458.87" y="-147" font-family="Times,serif" font-size="14.00" style="">ev_in</text>
</g>
<!-- v30 -->
<g id="node33" class="node" pointer-events="visible" data-name="v30">

<polygon fill="#d28922" fill-opacity="0.674510" stroke="black" points="379.6,-499.4 167.03,-499.4 167.03,-463.4 379.6,-463.4 379.6,-499.4" style=""/>
<text text-anchor="middle" x="273.32" y="-477.2" font-family="Times,serif" font-size="14.00" style="">EVMODELER:AGAT_GXF2GFF</text>
</g>
<!-- v29&#45;&gt;v30 -->
<g id="edge37" class="edge" data-name="v29-&gt;v30">

<path fill="none" stroke="black" d="M343.54,-567.05C336.91,-559.06 313.08,-530.34 295.01,-508.55"/>
<polygon fill="black" stroke="black" points="297.73,-506.34 288.65,-500.88 292.34,-510.81 297.73,-506.34"/>
</g>
<!-- v30&#45;&gt;v31 -->
<g id="edge38" class="edge" data-name="v30-&gt;v31">

<path fill="none" stroke="black" d="M282.27,-463.21C288.86,-450.57 297.67,-433.66 303.65,-422.19"/>
<polygon fill="black" stroke="black" points="306.7,-423.91 308.22,-413.42 300.5,-420.67 306.7,-423.91"/>
</g>
<!-- v31&#45;&gt;v32 -->
<g id="edge40" class="edge" data-name="v31-&gt;v32">

<path fill="none" stroke="black" d="M310.32,-404.65C310.32,-395.71 310.32,-366.96 310.32,-349.35"/>
<polygon fill="black" stroke="black" points="313.82,-349.36 310.32,-339.36 306.82,-349.36 313.82,-349.36"/>
</g>
<!-- v39 -->
<g id="node36" class="node" pointer-events="visible" data-name="v39">

<polygon fill="#f8ffb9" stroke="black" points="320.32,-36 272.32,-36 272.32,0 326.32,0 326.32,-30 320.32,-36" style=""/>
<polyline fill="none" stroke="black" points="320.32,-36 320.32,-30" style=""/>
<polyline fill="none" stroke="black" points="326.32,-30 320.32,-30" style=""/>
<text text-anchor="middle" x="299.32" y="-13.8" font-family="Times,serif" font-size="14.00" style="">output</text>
</g>
<!-- v34&#45;&gt;v39 -->
<g id="edge43" class="edge" data-name="v34-&gt;v39">

<path fill="none" stroke="black" d="M399.52,-88.35C388.14,-83.22 376.09,-77.24 365.43,-70.8 352.33,-62.89 338.86,-52.76 327.53,-43.56"/>
<polygon fill="black" stroke="black" points="330.04,-41.09 320.11,-37.4 325.57,-46.48 330.04,-41.09"/>
<text text-anchor="middle" x="382.26" y="-58.2" font-family="Times,serif" font-size="14.00" style="">$out0</text>
</g>
<!-- v38 -->
<g id="node37" class="node" pointer-events="visible" data-name="v38">

<polygon fill="#f8ffb9" stroke="black" points="392.32,-36 344.32,-36 344.32,0 398.32,0 398.32,-30 392.32,-36" style=""/>
<polyline fill="none" stroke="black" points="392.32,-36 392.32,-30" style=""/>
<polyline fill="none" stroke="black" points="398.32,-30 392.32,-30" style=""/>
<text text-anchor="middle" x="371.32" y="-13.8" font-family="Times,serif" font-size="14.00" style="">output</text>
</g>
<!-- v34&#45;&gt;v38 -->
<g id="edge44" class="edge" data-name="v34-&gt;v38">

<path fill="none" stroke="black" d="M429.09,-88.65C418.81,-76.25 404.72,-59.27 393.03,-45.18"/>
<polygon fill="black" stroke="black" points="395.8,-43.04 386.73,-37.58 390.42,-47.51 395.8,-43.04"/>
</g>
<!-- v37 -->
<g id="node38" class="node" pointer-events="visible" data-name="v37">

<polygon fill="#f8ffb9" stroke="black" points="464.32,-36 416.32,-36 416.32,0 470.32,0 470.32,-30 464.32,-36" style=""/>
<polyline fill="none" stroke="black" points="464.32,-36 464.32,-30" style=""/>
<polyline fill="none" stroke="black" points="470.32,-30 464.32,-30" style=""/>
<text text-anchor="middle" x="443.32" y="-13.8" font-family="Times,serif" font-size="14.00" style="">output</text>
</g>
<!-- v34&#45;&gt;v37 -->
<g id="edge45" class="edge" data-name="v34-&gt;v37">

<path fill="none" stroke="black" d="M443.32,-88.65C443.32,-76.96 443.32,-61.19 443.32,-47.62"/>
<polygon fill="black" stroke="black" points="446.82,-47.92 443.32,-37.92 439.82,-47.92 446.82,-47.92"/>
</g>
<!-- v36 -->
<g id="node39" class="node" pointer-events="visible" data-name="v36">

<polygon fill="#f8ffb9" stroke="black" points="536.32,-36 488.32,-36 488.32,0 542.32,0 542.32,-30 536.32,-36" style=""/>
<polyline fill="none" stroke="black" points="536.32,-36 536.32,-30" style=""/>
<polyline fill="none" stroke="black" points="542.32,-30 536.32,-30" style=""/>
<text text-anchor="middle" x="515.32" y="-13.8" font-family="Times,serif" font-size="14.00" style="">output</text>
</g>
<!-- v34&#45;&gt;v36 -->
<g id="edge46" class="edge" data-name="v34-&gt;v36">

<path fill="none" stroke="black" d="M457.54,-88.65C467.83,-76.25 481.92,-59.27 493.6,-45.18"/>
<polygon fill="black" stroke="black" points="496.22,-47.51 499.91,-37.58 490.83,-43.04 496.22,-47.51"/>
</g>
<!-- v35 -->
<g id="node40" class="node" pointer-events="visible" data-name="v35">

<polygon fill="#f8ffb9" stroke="black" points="608.32,-36 560.32,-36 560.32,0 614.32,0 614.32,-30 608.32,-36" style=""/>
<polyline fill="none" stroke="black" points="608.32,-36 608.32,-30" style=""/>
<polyline fill="none" stroke="black" points="614.32,-30 608.32,-30" style=""/>
<text text-anchor="middle" x="587.32" y="-13.8" font-family="Times,serif" font-size="14.00" style="">output</text>
</g>
<!-- v34&#45;&gt;v35 -->
<g id="edge47" class="edge" data-name="v34-&gt;v35">

<path fill="none" stroke="black" d="M472.11,-88.44C494.62,-74.88 526.06,-55.92 550.42,-41.24"/>
<polygon fill="black" stroke="black" points="551.98,-44.39 558.74,-36.23 548.37,-38.39 551.98,-44.39"/>
</g>
</g>
</svg>